<mxfile host="65bd71144e">
    <diagram name="PÃ¡gina-1" id="HVJNSIb6kh4CN49gdlv5">
        <mxGraphModel dx="931" dy="704" grid="1" gridSize="10" guides="1" tooltips="1" connect="1" arrows="1" fold="1" page="1" pageScale="1" pageWidth="827" pageHeight="1169" math="0" shadow="0">
            <root>
                <mxCell id="0"/>
                <mxCell id="1" parent="0"/>
                <mxCell id="EMFoxrK3-Nk2DSFel8ci-5" value="Clientes" style="swimlane;childLayout=stackLayout;horizontal=1;startSize=50;horizontalStack=0;rounded=1;fontSize=14;fontStyle=0;strokeWidth=2;resizeParent=0;resizeLast=1;shadow=0;dashed=0;align=center;arcSize=4;whiteSpace=wrap;html=1;" parent="1" vertex="1">
                    <mxGeometry x="100" y="110" width="160" height="120" as="geometry"/>
                </mxCell>
                <mxCell id="EMFoxrK3-Nk2DSFel8ci-6" value="(id)numero de cliente&lt;div&gt;saldo&lt;/div&gt;&lt;div&gt;descuento&lt;/div&gt;" style="align=left;strokeColor=none;fillColor=none;spacingLeft=4;spacingRight=4;fontSize=12;verticalAlign=top;resizable=0;rotatable=0;part=1;html=1;whiteSpace=wrap;" parent="EMFoxrK3-Nk2DSFel8ci-5" vertex="1">
                    <mxGeometry y="50" width="160" height="70" as="geometry"/>
                </mxCell>
                <mxCell id="EMFoxrK3-Nk2DSFel8ci-7" value="articulos" style="swimlane;childLayout=stackLayout;horizontal=1;startSize=50;horizontalStack=0;rounded=1;fontSize=14;fontStyle=0;strokeWidth=2;resizeParent=0;resizeLast=1;shadow=0;dashed=0;align=center;arcSize=4;whiteSpace=wrap;html=1;" parent="1" vertex="1">
                    <mxGeometry x="500" y="365" width="160" height="120" as="geometry"/>
                </mxCell>
                <mxCell id="EMFoxrK3-Nk2DSFel8ci-8" value="(id)Numero de articulos&lt;div&gt;Descripcion&lt;/div&gt;" style="align=left;strokeColor=none;fillColor=none;spacingLeft=4;spacingRight=4;fontSize=12;verticalAlign=top;resizable=0;rotatable=0;part=1;html=1;whiteSpace=wrap;" parent="EMFoxrK3-Nk2DSFel8ci-7" vertex="1">
                    <mxGeometry y="50" width="160" height="70" as="geometry"/>
                </mxCell>
                <mxCell id="EMFoxrK3-Nk2DSFel8ci-9" value="pedidos" style="swimlane;childLayout=stackLayout;horizontal=1;startSize=50;horizontalStack=0;rounded=1;fontSize=14;fontStyle=0;strokeWidth=2;resizeParent=0;resizeLast=1;shadow=0;dashed=0;align=center;arcSize=4;whiteSpace=wrap;html=1;" parent="1" vertex="1">
                    <mxGeometry x="500" y="110" width="160" height="120" as="geometry"/>
                </mxCell>
                <mxCell id="EMFoxrK3-Nk2DSFel8ci-10" value="(id)Numero de cliente&lt;div&gt;Direccion de envio&lt;/div&gt;&lt;div&gt;fecha de pedido&lt;/div&gt;" style="align=left;strokeColor=none;fillColor=none;spacingLeft=4;spacingRight=4;fontSize=12;verticalAlign=top;resizable=0;rotatable=0;part=1;html=1;whiteSpace=wrap;" parent="EMFoxrK3-Nk2DSFel8ci-9" vertex="1">
                    <mxGeometry y="50" width="160" height="70" as="geometry"/>
                </mxCell>
                <mxCell id="EMFoxrK3-Nk2DSFel8ci-46" style="edgeStyle=none;curved=1;rounded=0;orthogonalLoop=1;jettySize=auto;html=1;exitX=1;exitY=0;exitDx=0;exitDy=0;entryX=0;entryY=1;entryDx=0;entryDy=0;fontSize=12;startSize=8;endSize=8;" parent="1" source="EMFoxrK3-Nk2DSFel8ci-11" target="EMFoxrK3-Nk2DSFel8ci-45" edge="1">
                    <mxGeometry relative="1" as="geometry"/>
                </mxCell>
                <mxCell id="EMFoxrK3-Nk2DSFel8ci-11" value="Direccion de envio" style="swimlane;childLayout=stackLayout;horizontal=1;startSize=50;horizontalStack=0;rounded=1;fontSize=14;fontStyle=0;strokeWidth=2;resizeParent=0;resizeLast=1;shadow=0;dashed=0;align=center;arcSize=4;whiteSpace=wrap;html=1;" parent="1" vertex="1">
                    <mxGeometry x="100" y="380" width="160" height="150" as="geometry"/>
                </mxCell>
                <mxCell id="EMFoxrK3-Nk2DSFel8ci-12" value="(id) direccion&lt;div&gt;Numero&lt;/div&gt;&lt;div&gt;Calle&lt;/div&gt;&lt;div&gt;Pueblo&lt;/div&gt;&lt;div&gt;Ciudad&lt;/div&gt;&lt;div&gt;Fecha&lt;/div&gt;" style="align=left;strokeColor=none;fillColor=none;spacingLeft=4;spacingRight=4;fontSize=12;verticalAlign=top;resizable=0;rotatable=0;part=1;html=1;whiteSpace=wrap;" parent="EMFoxrK3-Nk2DSFel8ci-11" vertex="1">
                    <mxGeometry y="50" width="160" height="100" as="geometry"/>
                </mxCell>
                <mxCell id="EMFoxrK3-Nk2DSFel8ci-13" style="edgeStyle=none;curved=1;rounded=0;orthogonalLoop=1;jettySize=auto;html=1;entryX=0.5;entryY=0;entryDx=0;entryDy=0;fontSize=12;startSize=8;endSize=8;" parent="EMFoxrK3-Nk2DSFel8ci-11" source="EMFoxrK3-Nk2DSFel8ci-12" target="EMFoxrK3-Nk2DSFel8ci-12" edge="1">
                    <mxGeometry relative="1" as="geometry"/>
                </mxCell>
                <mxCell id="EMFoxrK3-Nk2DSFel8ci-15" style="edgeStyle=none;curved=1;rounded=0;orthogonalLoop=1;jettySize=auto;html=1;exitX=0.5;exitY=1;exitDx=0;exitDy=0;entryX=0.5;entryY=0;entryDx=0;entryDy=0;fontSize=12;startSize=8;endSize=8;" parent="1" source="EMFoxrK3-Nk2DSFel8ci-14" target="EMFoxrK3-Nk2DSFel8ci-11" edge="1">
                    <mxGeometry relative="1" as="geometry"/>
                </mxCell>
                <mxCell id="EMFoxrK3-Nk2DSFel8ci-14" value="tiene" style="shape=rhombus;perimeter=rhombusPerimeter;whiteSpace=wrap;html=1;align=center;" parent="1" vertex="1">
                    <mxGeometry x="120" y="270" width="120" height="60" as="geometry"/>
                </mxCell>
                <mxCell id="EMFoxrK3-Nk2DSFel8ci-16" style="edgeStyle=none;curved=1;rounded=0;orthogonalLoop=1;jettySize=auto;html=1;exitX=0.5;exitY=1;exitDx=0;exitDy=0;entryX=0.5;entryY=0;entryDx=0;entryDy=0;fontSize=12;startSize=8;endSize=8;" parent="1" source="EMFoxrK3-Nk2DSFel8ci-6" target="EMFoxrK3-Nk2DSFel8ci-14" edge="1">
                    <mxGeometry relative="1" as="geometry"/>
                </mxCell>
                <mxCell id="EMFoxrK3-Nk2DSFel8ci-17" value="M" style="text;html=1;align=center;verticalAlign=middle;resizable=0;points=[];autosize=1;strokeColor=none;fillColor=none;fontSize=16;" parent="1" vertex="1">
                    <mxGeometry x="174" y="230" width="40" height="30" as="geometry"/>
                </mxCell>
                <mxCell id="EMFoxrK3-Nk2DSFel8ci-18" value="N" style="text;html=1;align=center;verticalAlign=middle;resizable=0;points=[];autosize=1;strokeColor=none;fillColor=none;fontSize=16;" parent="1" vertex="1">
                    <mxGeometry x="174" y="351" width="40" height="30" as="geometry"/>
                </mxCell>
                <mxCell id="EMFoxrK3-Nk2DSFel8ci-19" value="fabricas" style="swimlane;childLayout=stackLayout;horizontal=1;startSize=50;horizontalStack=0;rounded=1;fontSize=14;fontStyle=0;strokeWidth=2;resizeParent=0;resizeLast=1;shadow=0;dashed=0;align=center;arcSize=4;whiteSpace=wrap;html=1;" parent="1" vertex="1">
                    <mxGeometry x="944" y="360" width="160" height="150" as="geometry"/>
                </mxCell>
                <mxCell id="EMFoxrK3-Nk2DSFel8ci-20" value="&lt;div&gt;(id)Numero de fabrica&lt;/div&gt;Fabricas que lo distribuyen&lt;div&gt;Existencias en fabricas&lt;/div&gt;&lt;div&gt;Telefono de contacto&lt;/div&gt;&lt;div&gt;&lt;br&gt;&lt;/div&gt;" style="align=left;strokeColor=none;fillColor=none;spacingLeft=4;spacingRight=4;fontSize=12;verticalAlign=top;resizable=0;rotatable=0;part=1;html=1;whiteSpace=wrap;" parent="EMFoxrK3-Nk2DSFel8ci-19" vertex="1">
                    <mxGeometry y="50" width="160" height="100" as="geometry"/>
                </mxCell>
                <mxCell id="EMFoxrK3-Nk2DSFel8ci-23" style="edgeStyle=none;curved=1;rounded=0;orthogonalLoop=1;jettySize=auto;html=1;exitX=1;exitY=0.5;exitDx=0;exitDy=0;entryX=0;entryY=0.5;entryDx=0;entryDy=0;fontSize=12;startSize=8;endSize=8;" parent="1" source="EMFoxrK3-Nk2DSFel8ci-21" target="EMFoxrK3-Nk2DSFel8ci-19" edge="1">
                    <mxGeometry relative="1" as="geometry"/>
                </mxCell>
                <mxCell id="EMFoxrK3-Nk2DSFel8ci-21" value="vienen" style="shape=rhombus;perimeter=rhombusPerimeter;whiteSpace=wrap;html=1;align=center;" parent="1" vertex="1">
                    <mxGeometry x="750" y="405" width="120" height="60" as="geometry"/>
                </mxCell>
                <mxCell id="EMFoxrK3-Nk2DSFel8ci-22" style="edgeStyle=none;curved=1;rounded=0;orthogonalLoop=1;jettySize=auto;html=1;exitX=1;exitY=0.25;exitDx=0;exitDy=0;entryX=0.067;entryY=0.5;entryDx=0;entryDy=0;entryPerimeter=0;fontSize=12;startSize=8;endSize=8;" parent="1" source="EMFoxrK3-Nk2DSFel8ci-8" target="EMFoxrK3-Nk2DSFel8ci-21" edge="1">
                    <mxGeometry relative="1" as="geometry"/>
                </mxCell>
                <mxCell id="EMFoxrK3-Nk2DSFel8ci-24" value="N" style="text;html=1;align=center;verticalAlign=middle;resizable=0;points=[];autosize=1;strokeColor=none;fillColor=none;fontSize=16;" parent="1" vertex="1">
                    <mxGeometry x="660" y="405" width="40" height="30" as="geometry"/>
                </mxCell>
                <mxCell id="EMFoxrK3-Nk2DSFel8ci-25" value="M" style="text;html=1;align=center;verticalAlign=middle;resizable=0;points=[];autosize=1;strokeColor=none;fillColor=none;fontSize=16;" parent="1" vertex="1">
                    <mxGeometry x="900" y="405" width="40" height="30" as="geometry"/>
                </mxCell>
                <mxCell id="EMFoxrK3-Nk2DSFel8ci-26" value="productos&amp;nbsp;" style="swimlane;childLayout=stackLayout;horizontal=1;startSize=50;horizontalStack=0;rounded=1;fontSize=14;fontStyle=0;strokeWidth=2;resizeParent=0;resizeLast=1;shadow=0;dashed=0;align=center;arcSize=4;whiteSpace=wrap;html=1;" parent="1" vertex="1">
                    <mxGeometry x="910" y="110" width="160" height="120" as="geometry"/>
                </mxCell>
                <mxCell id="EMFoxrK3-Nk2DSFel8ci-27" value="Productos de cada pedido" style="align=left;strokeColor=none;fillColor=none;spacingLeft=4;spacingRight=4;fontSize=12;verticalAlign=top;resizable=0;rotatable=0;part=1;html=1;whiteSpace=wrap;" parent="EMFoxrK3-Nk2DSFel8ci-26" vertex="1">
                    <mxGeometry y="50" width="160" height="70" as="geometry"/>
                </mxCell>
                <mxCell id="EMFoxrK3-Nk2DSFel8ci-30" style="edgeStyle=none;curved=1;rounded=0;orthogonalLoop=1;jettySize=auto;html=1;exitX=1;exitY=0.5;exitDx=0;exitDy=0;entryX=0;entryY=0.5;entryDx=0;entryDy=0;fontSize=12;startSize=8;endSize=8;" parent="1" source="EMFoxrK3-Nk2DSFel8ci-28" target="EMFoxrK3-Nk2DSFel8ci-26" edge="1">
                    <mxGeometry relative="1" as="geometry"/>
                </mxCell>
                <mxCell id="EMFoxrK3-Nk2DSFel8ci-28" value="tienen" style="shape=rhombus;perimeter=rhombusPerimeter;whiteSpace=wrap;html=1;align=center;" parent="1" vertex="1">
                    <mxGeometry x="730" y="141" width="120" height="60" as="geometry"/>
                </mxCell>
                <mxCell id="EMFoxrK3-Nk2DSFel8ci-29" style="edgeStyle=none;curved=1;rounded=0;orthogonalLoop=1;jettySize=auto;html=1;exitX=0.1;exitY=0.233;exitDx=0;exitDy=0;entryX=0;entryY=0.5;entryDx=0;entryDy=0;fontSize=12;startSize=8;endSize=8;exitPerimeter=0;" parent="1" source="EMFoxrK3-Nk2DSFel8ci-31" target="EMFoxrK3-Nk2DSFel8ci-28" edge="1">
                    <mxGeometry relative="1" as="geometry"/>
                </mxCell>
                <mxCell id="EMFoxrK3-Nk2DSFel8ci-31" value="1" style="text;html=1;align=center;verticalAlign=middle;resizable=0;points=[];autosize=1;strokeColor=none;fillColor=none;fontSize=16;" parent="1" vertex="1">
                    <mxGeometry x="659" y="151" width="30" height="30" as="geometry"/>
                </mxCell>
                <mxCell id="EMFoxrK3-Nk2DSFel8ci-32" value="N" style="text;html=1;align=center;verticalAlign=middle;resizable=0;points=[];autosize=1;strokeColor=none;fillColor=none;fontSize=16;" parent="1" vertex="1">
                    <mxGeometry x="874" y="141" width="40" height="30" as="geometry"/>
                </mxCell>
                <mxCell id="EMFoxrK3-Nk2DSFel8ci-37" style="edgeStyle=none;curved=1;rounded=0;orthogonalLoop=1;jettySize=auto;html=1;exitX=1;exitY=0.5;exitDx=0;exitDy=0;entryX=0;entryY=0.5;entryDx=0;entryDy=0;fontSize=12;startSize=8;endSize=8;" parent="1" source="EMFoxrK3-Nk2DSFel8ci-35" target="EMFoxrK3-Nk2DSFel8ci-9" edge="1">
                    <mxGeometry relative="1" as="geometry"/>
                </mxCell>
                <mxCell id="EMFoxrK3-Nk2DSFel8ci-35" value="realizan" style="shape=rhombus;perimeter=rhombusPerimeter;whiteSpace=wrap;html=1;align=center;" parent="1" vertex="1">
                    <mxGeometry x="320" y="140" width="120" height="60" as="geometry"/>
                </mxCell>
                <mxCell id="EMFoxrK3-Nk2DSFel8ci-36" style="edgeStyle=none;curved=1;rounded=0;orthogonalLoop=1;jettySize=auto;html=1;exitX=1;exitY=0.25;exitDx=0;exitDy=0;entryX=0;entryY=0.5;entryDx=0;entryDy=0;fontSize=12;startSize=8;endSize=8;" parent="1" source="EMFoxrK3-Nk2DSFel8ci-6" target="EMFoxrK3-Nk2DSFel8ci-35" edge="1">
                    <mxGeometry relative="1" as="geometry"/>
                </mxCell>
                <mxCell id="EMFoxrK3-Nk2DSFel8ci-38" value="1" style="text;html=1;align=center;verticalAlign=middle;resizable=0;points=[];autosize=1;strokeColor=none;fillColor=none;fontSize=16;" parent="1" vertex="1">
                    <mxGeometry x="259" y="151" width="30" height="30" as="geometry"/>
                </mxCell>
                <mxCell id="EMFoxrK3-Nk2DSFel8ci-39" value="M" style="text;html=1;align=center;verticalAlign=middle;resizable=0;points=[];autosize=1;strokeColor=none;fillColor=none;fontSize=16;" parent="1" vertex="1">
                    <mxGeometry x="464" y="141" width="40" height="30" as="geometry"/>
                </mxCell>
                <mxCell id="EMFoxrK3-Nk2DSFel8ci-42" style="edgeStyle=none;curved=1;rounded=0;orthogonalLoop=1;jettySize=auto;html=1;exitX=0.5;exitY=1;exitDx=0;exitDy=0;entryX=0.5;entryY=0;entryDx=0;entryDy=0;fontSize=12;startSize=8;endSize=8;" parent="1" source="EMFoxrK3-Nk2DSFel8ci-40" target="EMFoxrK3-Nk2DSFel8ci-7" edge="1">
                    <mxGeometry relative="1" as="geometry"/>
                </mxCell>
                <mxCell id="EMFoxrK3-Nk2DSFel8ci-40" value="contiene" style="shape=rhombus;perimeter=rhombusPerimeter;whiteSpace=wrap;html=1;align=center;" parent="1" vertex="1">
                    <mxGeometry x="520" y="270" width="120" height="60" as="geometry"/>
                </mxCell>
                <mxCell id="EMFoxrK3-Nk2DSFel8ci-41" style="edgeStyle=none;curved=1;rounded=0;orthogonalLoop=1;jettySize=auto;html=1;exitX=0.5;exitY=1;exitDx=0;exitDy=0;entryX=0.5;entryY=0;entryDx=0;entryDy=0;fontSize=12;startSize=8;endSize=8;" parent="1" source="EMFoxrK3-Nk2DSFel8ci-10" target="EMFoxrK3-Nk2DSFel8ci-40" edge="1">
                    <mxGeometry relative="1" as="geometry"/>
                </mxCell>
                <mxCell id="EMFoxrK3-Nk2DSFel8ci-43" value="N" style="text;html=1;align=center;verticalAlign=middle;resizable=0;points=[];autosize=1;strokeColor=none;fillColor=none;fontSize=16;" parent="1" vertex="1">
                    <mxGeometry x="580" y="230" width="40" height="30" as="geometry"/>
                </mxCell>
                <mxCell id="EMFoxrK3-Nk2DSFel8ci-44" value="M" style="text;html=1;align=center;verticalAlign=middle;resizable=0;points=[];autosize=1;strokeColor=none;fillColor=none;fontSize=16;" parent="1" vertex="1">
                    <mxGeometry x="580" y="335" width="40" height="30" as="geometry"/>
                </mxCell>
                <mxCell id="EMFoxrK3-Nk2DSFel8ci-47" style="edgeStyle=none;curved=1;rounded=0;orthogonalLoop=1;jettySize=auto;html=1;exitX=1;exitY=0;exitDx=0;exitDy=0;entryX=0;entryY=1;entryDx=0;entryDy=0;fontSize=12;startSize=8;endSize=8;" parent="1" source="EMFoxrK3-Nk2DSFel8ci-45" target="EMFoxrK3-Nk2DSFel8ci-9" edge="1">
                    <mxGeometry relative="1" as="geometry"/>
                </mxCell>
                <mxCell id="EMFoxrK3-Nk2DSFel8ci-45" value="usa" style="shape=rhombus;perimeter=rhombusPerimeter;whiteSpace=wrap;html=1;align=center;" parent="1" vertex="1">
                    <mxGeometry x="310" y="290" width="120" height="60" as="geometry"/>
                </mxCell>
                <mxCell id="EMFoxrK3-Nk2DSFel8ci-48" value="N" style="text;html=1;align=center;verticalAlign=middle;resizable=0;points=[];autosize=1;strokeColor=none;fillColor=none;fontSize=16;" parent="1" vertex="1">
                    <mxGeometry x="454" y="211" width="40" height="30" as="geometry"/>
                </mxCell>
                <mxCell id="EMFoxrK3-Nk2DSFel8ci-49" value="1" style="text;html=1;align=center;verticalAlign=middle;resizable=0;points=[];autosize=1;strokeColor=none;fillColor=none;fontSize=16;" parent="1" vertex="1">
                    <mxGeometry x="239" y="351" width="30" height="30" as="geometry"/>
                </mxCell>
            </root>
        </mxGraphModel>
    </diagram>
</mxfile>